<svg width="109" height="59" viewBox="0 0 109 59" fill="none" xmlns="http://www.w3.org/2000/svg">
<path d="M1 29.5L25 1H87L107.5 29.5L87 58H25L1 29.5Z" fill="#FFFCFF" fill-opacity="0.1" stroke="#A07CDF"/>
<g filter="url(#filter0_d_2003_4857)">
<path d="M53.3438 32.1719H47.75V36.4062H46.0312V32.1719H40.4688V30.75H53.3438V32.1719ZM41.1719 28.5156C42.0833 28.4062 42.8958 28.1901 43.6094 27.8672C44.3229 27.5391 44.888 27.151 45.3047 26.7031C45.7214 26.25 45.9583 25.7865 46.0156 25.3125H41.6562V23.9375H46.0312V22.2812H47.75V23.9375H52.1406V25.3125H47.7812C47.8385 25.7865 48.0729 26.2474 48.4844 26.6953C48.901 27.1432 49.4661 27.5312 50.1797 27.8594C50.8932 28.1875 51.7031 28.4062 52.6094 28.5156L51.9688 29.8906C50.8177 29.7448 49.8021 29.4349 48.9219 28.9609C48.0417 28.487 47.3698 27.9036 46.9062 27.2109C46.4375 27.9089 45.7578 28.4948 44.8672 28.9688C43.9818 29.4375 42.9583 29.7448 41.7969 29.8906L41.1719 28.5156ZM65.3594 27.7812H67.4531V29.2344H65.3594V36.3594H63.625V22.2656H65.3594V27.7812ZM54.2188 32.5C55.9427 31.6406 57.2708 30.6068 58.2031 29.3984C59.1354 28.1849 59.6875 26.776 59.8594 25.1719H54.9844V23.7344H61.625C61.6146 28.3698 59.474 31.7396 55.2031 33.8438L54.2188 32.5Z" fill="white"/>
</g>
<defs>
<filter id="filter0_d_2003_4857" x="20.4688" y="2.26562" width="66.9844" height="54.1406" filterUnits="userSpaceOnUse" color-interpolation-filters="sRGB">
<feFlood flood-opacity="0" result="BackgroundImageFix"/>
<feColorMatrix in="SourceAlpha" type="matrix" values="0 0 0 0 0 0 0 0 0 0 0 0 0 0 0 0 0 0 127 0" result="hardAlpha"/>
<feOffset/>
<feGaussianBlur stdDeviation="10"/>
<feComposite in2="hardAlpha" operator="out"/>
<feColorMatrix type="matrix" values="0 0 0 0 1 0 0 0 0 1 0 0 0 0 1 0 0 0 0.7 0"/>
<feBlend mode="normal" in2="BackgroundImageFix" result="effect1_dropShadow_2003_4857"/>
<feBlend mode="normal" in="SourceGraphic" in2="effect1_dropShadow_2003_4857" result="shape"/>
</filter>
</defs>
</svg>
