<svg width="151" height="59" viewBox="0 0 151 59" fill="none" xmlns="http://www.w3.org/2000/svg">
<path d="M1 29.5L17.8282 1H132.821L150 29.5L133.172 58H17.8282L1 29.5Z" fill="#FFFCFF" fill-opacity="0.1" stroke="#A07CDF"/>
<path d="M71.125 25.1094H68.2031C68.2135 25.5208 68.3438 25.9089 68.5938 26.2734C68.849 26.638 69.2161 26.9557 69.6953 27.2266C70.1797 27.4974 70.7604 27.6979 71.4375 27.8281L70.75 29.1719C69.9531 29.0052 69.2682 28.7422 68.6953 28.3828C68.1276 28.0182 67.6849 27.5781 67.3672 27.0625C67.0547 27.6302 66.6042 28.112 66.0156 28.5078C65.4323 28.9036 64.7344 29.1875 63.9219 29.3594L63.1875 28.0156C63.875 27.8802 64.4609 27.6667 64.9453 27.375C65.4349 27.0833 65.8047 26.7422 66.0547 26.3516C66.3099 25.9609 66.4427 25.5469 66.4531 25.1094H63.5469V23.75H66.4688V22.2969H68.2031V23.75H71.125V25.1094ZM63.3594 30.0938C64.9427 30.0938 66.4375 30.0677 67.8438 30.0156C69.25 29.9635 70.5729 29.8594 71.8125 29.7031L71.9375 30.9531C70.8385 31.1458 69.599 31.2891 68.2188 31.3828V35.9531H66.4688V31.4766C65.4688 31.513 64.2708 31.5312 62.875 31.5312L62.6562 30.0938H63.3594ZM72.7344 22.2812H74.4531V36.375H72.7344V22.2812ZM89.375 34.6406H76.4688V33.2344H82V29.9688H83.7188V33.2344H89.375V34.6406ZM76.8438 28.875C77.8073 28.7188 78.6745 28.4036 79.4453 27.9297C80.2161 27.4505 80.8203 26.8776 81.2578 26.2109C81.7005 25.5443 81.9219 24.8594 81.9219 24.1562V23.125H83.7656V24.1562C83.7656 24.8646 83.9844 25.5521 84.4219 26.2188C84.8646 26.8854 85.474 27.4557 86.25 27.9297C87.0312 28.4036 87.9062 28.7188 88.875 28.875L88.125 30.3125C86.9323 30.0885 85.8698 29.6536 84.9375 29.0078C84.0104 28.3568 83.3125 27.5677 82.8438 26.6406C82.375 27.5677 81.6771 28.3568 80.75 29.0078C79.8281 29.6536 78.776 30.0885 77.5938 30.3125L76.8438 28.875Z" fill="#A07CDF"/>
</svg>
