<svg width="398" height="653" viewBox="0 0 398 653" fill="none" xmlns="http://www.w3.org/2000/svg">
<g filter="url(#filter0_d_2110_2511)">
<mask id="path-1-inside-1_2110_2511" fill="white">
<path fill-rule="evenodd" clip-rule="evenodd" d="M296.085 27C296.085 23.134 292.951 20 289.085 20H25C22.2386 20 20 22.2386 20 25V357.608C20.0233 357.431 20.2794 357.431 20.3027 357.608L52.723 603.869C53.1815 607.351 56.1503 609.955 59.6631 609.955H94.9152C98.7812 609.955 101.915 613.089 101.915 616.955V626C101.915 629.866 105.049 633 108.915 633H373C375.761 633 378 630.761 378 628V293.092L345.883 49.1315C345.424 45.6487 342.455 43.0451 338.942 43.0451H303.085C299.219 43.0451 296.085 39.9111 296.085 36.0451V27Z"/>
</mask>
<path fill-rule="evenodd" clip-rule="evenodd" d="M296.085 27C296.085 23.134 292.951 20 289.085 20H25C22.2386 20 20 22.2386 20 25V357.608C20.0233 357.431 20.2794 357.431 20.3027 357.608L52.723 603.869C53.1815 607.351 56.1503 609.955 59.6631 609.955H94.9152C98.7812 609.955 101.915 613.089 101.915 616.955V626C101.915 629.866 105.049 633 108.915 633H373C375.761 633 378 630.761 378 628V293.092L345.883 49.1315C345.424 45.6487 342.455 43.0451 338.942 43.0451H303.085C299.219 43.0451 296.085 39.9111 296.085 36.0451V27Z" fill="#E3DAF0" fill-opacity="0.1" shape-rendering="crispEdges"/>
<path d="M20 357.608H19L20.9914 357.739L20 357.608ZM20.3027 357.608L19.3113 357.739L19.3113 357.739L20.3027 357.608ZM378 293.092H379V293.026L378.991 292.961L378 293.092ZM52.723 603.869L53.7144 603.738L52.723 603.869ZM345.883 49.1315L346.874 49.0009L345.883 49.1315ZM25 21H289.085V19H25V21ZM21 25C21 22.7909 22.7909 21 25 21V19C21.6863 19 19 21.6863 19 25H21ZM21 357.608V25H19V357.608H21ZM21.2942 357.478C21.1183 356.142 19.1845 356.142 19.0086 357.478L20.9914 357.739C20.8621 358.721 19.4406 358.721 19.3113 357.739L21.2942 357.478ZM53.7144 603.738L21.2942 357.478L19.3113 357.739L51.7315 603.999L53.7144 603.738ZM94.9152 608.955H59.6631V610.955H94.9152V608.955ZM102.915 626V616.955H100.915V626H102.915ZM373 632H108.915V634H373V632ZM377 628C377 630.209 375.209 632 373 632V634C376.314 634 379 631.314 379 628H377ZM377 293.092V628H379V293.092H377ZM344.891 49.262L377.009 293.222L378.991 292.961L346.874 49.0009L344.891 49.262ZM338.942 42.0451H303.085V44.0451H338.942V42.0451ZM297.085 36.0451V27H295.085V36.0451H297.085ZM100.915 626C100.915 630.418 104.497 634 108.915 634V632C105.602 632 102.915 629.314 102.915 626H100.915ZM51.7315 603.999C52.2555 607.979 55.6484 610.955 59.6631 610.955V608.955C56.6521 608.955 54.1074 606.723 53.7144 603.738L51.7315 603.999ZM346.874 49.0009C346.35 45.0206 342.957 42.0451 338.942 42.0451V44.0451C341.953 44.0451 344.498 46.2767 344.891 49.262L346.874 49.0009ZM94.9152 610.955C98.229 610.955 100.915 613.641 100.915 616.955H102.915C102.915 612.537 99.3335 608.955 94.9152 608.955V610.955ZM303.085 42.0451C299.771 42.0451 297.085 39.3588 297.085 36.0451H295.085C295.085 40.4634 298.666 44.0451 303.085 44.0451V42.0451ZM289.085 21C292.398 21 295.085 23.6863 295.085 27H297.085C297.085 22.5817 293.503 19 289.085 19V21Z" fill="#A07CDF" mask="url(#path-1-inside-1_2110_2511)"/>
</g>
<defs>
<filter id="filter0_d_2110_2511" x="0" y="0" width="398" height="653" filterUnits="userSpaceOnUse" color-interpolation-filters="sRGB">
<feFlood flood-opacity="0" result="BackgroundImageFix"/>
<feColorMatrix in="SourceAlpha" type="matrix" values="0 0 0 0 0 0 0 0 0 0 0 0 0 0 0 0 0 0 127 0" result="hardAlpha"/>
<feOffset/>
<feGaussianBlur stdDeviation="10"/>
<feComposite in2="hardAlpha" operator="out"/>
<feColorMatrix type="matrix" values="0 0 0 0 1 0 0 0 0 1 0 0 0 0 1 0 0 0 0.35 0"/>
<feBlend mode="normal" in2="BackgroundImageFix" result="effect1_dropShadow_2110_2511"/>
<feBlend mode="normal" in="SourceGraphic" in2="effect1_dropShadow_2110_2511" result="shape"/>
</filter>
</defs>
</svg>
