<svg width="155" height="87" viewBox="0 0 155 87" fill="none" xmlns="http://www.w3.org/2000/svg">
<g clip-path="url(#clip0_32_20556)">
<path d="M135.369 69.5344H19.6307L0 46.4996L19.6307 23.4648H135.369L155 46.4996L135.369 69.5344ZM19.9518 68.8486H135.048L154.101 46.4996L135.048 24.1507H19.9518L0.898976 46.4996L19.9518 68.8486Z" fill="#A07CDF"/>
<path d="M134.094 66.7909H20.9058L3.61426 46.4995L20.9058 26.208H134.094L151.386 46.4995L134.094 66.7909ZM21.2268 66.1051H133.782L150.496 46.4995L133.782 26.8938H21.2268L4.51323 46.4995L21.2268 66.1051Z" fill="#A07CDF"/>
<path d="M21.3094 26.7932L20.8232 26.3086L35.9499 11.2294H85.9531L96.1354 1.0791H114.656V1.76493H96.4198L86.2375 11.9152H36.2343L21.3094 26.7932Z" fill="#A07CDF"/>
<path d="M96.8876 17.53H67.0563L61.323 11.8147L61.8092 11.3301L67.3406 16.8442H96.8876V17.53Z" fill="#A07CDF"/>
<path d="M114.656 2.85306C115.446 2.85306 116.087 2.21438 116.087 1.42653C116.087 0.638679 115.446 0 114.656 0C113.866 0 113.225 0.638679 113.225 1.42653C113.225 2.21438 113.866 2.85306 114.656 2.85306Z" fill="#A07CDF"/>
<path d="M96.8876 18.6089C97.6779 18.6089 98.3186 17.9702 98.3186 17.1824C98.3186 16.3945 97.6779 15.7559 96.8876 15.7559C96.0972 15.7559 95.4565 16.3945 95.4565 17.1824C95.4565 17.9702 96.0972 18.6089 96.8876 18.6089Z" fill="#A07CDF"/>
<path d="M67.8636 87.0093C68.654 87.0093 69.2947 86.3706 69.2947 85.5828C69.2947 84.7949 68.654 84.1562 67.8636 84.1562C67.0733 84.1562 66.4326 84.7949 66.4326 85.5828C66.4326 86.3706 67.0733 87.0093 67.8636 87.0093Z" fill="#A07CDF"/>
<path d="M134.159 66.5621H21.1719L3.92627 46.4809L6.01776 44.6978L22.4378 63.8187H132.893L149.313 44.6978L151.404 46.4809L134.159 66.5621Z" fill="#A07CDF"/>
<path d="M82.0086 85.9208H67.8635V85.2349H81.7243L89.3839 77.6085H126.288L134.966 68.9487L135.452 69.4334L126.572 78.2943H89.6683L82.0086 85.9208Z" fill="#A07CDF"/>
<path d="M58.7607 52H56.1592V39.2734H58.7607V52ZM65.0713 52.1934C64.1221 52.1934 63.293 51.9883 62.584 51.5781C61.8809 51.1621 61.3389 50.582 60.958 49.8379C60.583 49.0938 60.3955 48.2324 60.3955 47.2539C60.3955 46.2754 60.583 45.417 60.958 44.6787C61.3389 43.9346 61.8809 43.3574 62.584 42.9473C63.293 42.5371 64.1221 42.332 65.0713 42.332C66.0205 42.332 66.8467 42.5371 67.5498 42.9473C68.2588 43.3574 68.8037 43.9346 69.1846 44.6787C69.5713 45.417 69.7646 46.2754 69.7646 47.2539C69.7646 48.2324 69.5713 49.0938 69.1846 49.8379C68.8037 50.582 68.2588 51.1621 67.5498 51.5781C66.8467 51.9883 66.0205 52.1934 65.0713 52.1934ZM63.0322 47.2539C63.0322 47.8223 63.1084 48.3262 63.2607 48.7656C63.4189 49.1992 63.6533 49.542 63.9639 49.7939C64.2744 50.0459 64.6494 50.1719 65.0889 50.1719C65.5166 50.1719 65.8828 50.0488 66.1875 49.8027C66.4922 49.5508 66.7207 49.208 66.873 48.7744C67.0312 48.3408 67.1104 47.8457 67.1104 47.2891C67.1104 46.7148 67.0342 46.2051 66.8818 45.7598C66.7295 45.3086 66.501 44.957 66.1963 44.7051C65.8916 44.4473 65.5225 44.3184 65.0889 44.3184C64.6494 44.3184 64.2744 44.4443 63.9639 44.6963C63.6533 44.9482 63.4189 45.2969 63.2607 45.7422C63.1084 46.1816 63.0322 46.6855 63.0322 47.2539ZM75.6885 55.7793C74.8213 55.7793 74.0654 55.6562 73.4209 55.4102C72.7764 55.1641 72.2695 54.8154 71.9004 54.3643C71.5312 53.9131 71.3232 53.3887 71.2764 52.791H73.8428C73.9131 53.1602 74.1123 53.4355 74.4404 53.6172C74.7744 53.8047 75.208 53.8984 75.7412 53.8984C76.374 53.8984 76.8662 53.749 77.2178 53.4502C77.5752 53.1572 77.7568 52.6914 77.7627 52.0527V50.3125H77.6396C77.4463 50.752 77.1211 51.1211 76.6641 51.4199C76.207 51.7188 75.624 51.8652 74.915 51.8594C74.1768 51.8652 73.5146 51.6953 72.9287 51.3496C72.3428 50.998 71.8799 50.4707 71.54 49.7676C71.2002 49.0586 71.0303 48.1914 71.0303 47.166C71.0303 46.1289 71.2031 45.2471 71.5488 44.5205C71.8945 43.7939 72.3604 43.249 72.9463 42.8857C73.5381 42.5166 74.1943 42.332 74.915 42.332C75.6357 42.332 76.2158 42.499 76.6553 42.833C77.0947 43.167 77.4229 43.5742 77.6396 44.0547H77.7451V42.4551H80.3291V52.1055C80.3291 52.8965 80.1328 53.5674 79.7402 54.1182C79.3477 54.6689 78.8027 55.082 78.1055 55.3574C77.4141 55.6387 76.6084 55.7793 75.6885 55.7793ZM73.7021 47.1748C73.7021 48.0186 73.875 48.6836 74.2207 49.1699C74.5723 49.6562 75.0732 49.9023 75.7236 49.9082C76.374 49.9023 76.875 49.6621 77.2266 49.1875C77.584 48.7129 77.7627 48.0508 77.7627 47.2012C77.7627 46.3398 77.584 45.6602 77.2266 45.1621C76.8691 44.6582 76.3682 44.4062 75.7236 44.4062C75.0791 44.4062 74.5811 44.6582 74.2295 45.1621C73.8779 45.666 73.7021 46.3369 73.7021 47.1748ZM86.499 42.4551H89.1006V52H86.499V42.4551ZM87.7998 41.207C87.542 41.207 87.3047 41.1484 87.0879 41.0312C86.8711 40.9082 86.6982 40.7471 86.5693 40.5479C86.4404 40.3428 86.376 40.123 86.376 39.8887C86.376 39.6484 86.4404 39.4258 86.5693 39.2207C86.6982 39.0156 86.8711 38.8545 87.0879 38.7373C87.3047 38.6143 87.542 38.5527 87.7998 38.5527C88.0518 38.5527 88.2861 38.6143 88.5029 38.7373C88.7197 38.8545 88.8896 39.0156 89.0127 39.2207C89.1416 39.4258 89.2061 39.6484 89.2061 39.8887C89.2061 40.123 89.1416 40.3428 89.0127 40.5479C88.8896 40.7471 88.7197 40.9082 88.5029 41.0312C88.2861 41.1484 88.0518 41.207 87.7998 41.207ZM93.7236 52H91.1221V42.4551H93.6006V44.125H93.7061C93.9229 43.5684 94.2803 43.1318 94.7783 42.8154C95.2764 42.4932 95.874 42.332 96.5713 42.332C97.2334 42.332 97.8105 42.4785 98.3027 42.7715C98.8008 43.0586 99.1846 43.4717 99.4541 44.0107C99.7236 44.5498 99.8584 45.1855 99.8584 45.918V52H97.2744V46.375C97.2686 45.7832 97.1133 45.3232 96.8086 44.9951C96.5098 44.6611 96.0908 44.4941 95.5518 44.4941C95.001 44.4941 94.5586 44.6699 94.2246 45.0215C93.8906 45.373 93.7236 45.8594 93.7236 46.4805V52Z" fill="#A07CDF"/>
</g>
<defs>
<clipPath id="clip0_32_20556">
<rect width="155" height="87" fill="white"/>
</clipPath>
</defs>
</svg>
