<svg width="111" height="66" viewBox="0 0 111 66" fill="none" xmlns="http://www.w3.org/2000/svg">
<g filter="url(#filter0_d_2081_2232)">
<path d="M43.7168 39.8828V42.7539H20.9395V39.8828H30.5371V36.1367H23.5645V27.7695H37.6465V25.0352H23.5371V22.2461H41.0918V30.5039H27.0645V33.293H41.666V36.1367H34.0098V39.8828H43.7168ZM65.0449 22.9297V25.9102C65.0312 29.3281 65.0312 32.7051 64.1426 37.8594L60.6152 37.5586C61.5586 32.7734 61.5586 29.2188 61.5723 25.9102V25.7188H47.4902V22.9297H65.0449ZM45.1387 42.2617V39.3906H67.834V42.2617H45.1387ZM90.1738 20.6602V38.543H86.6738V20.6602H90.1738ZM69.7207 28.5078C69.7207 24.8574 72.7012 22.2324 76.5293 22.2461C80.3438 22.2324 83.3242 24.8574 83.3379 28.5078C83.3242 32.2129 80.3438 34.8242 76.5293 34.8242C72.7012 34.8242 69.7207 32.2129 69.7207 28.5078ZM73.1387 28.5078C73.1113 30.5859 74.5742 31.7891 76.5293 31.7891C78.416 31.7891 79.8789 30.5859 79.8926 28.5078C79.8789 26.4844 78.416 25.2676 76.5293 25.2812C74.5742 25.2676 73.1113 26.4844 73.1387 28.5078ZM73.4941 45.0781V36.7383H77.0215V42.2891H90.8301V45.0781H73.4941Z" fill="white"/>
</g>
<defs>
<filter id="filter0_d_2081_2232" x="0.939453" y="0.660156" width="109.891" height="64.418" filterUnits="userSpaceOnUse" color-interpolation-filters="sRGB">
<feFlood flood-opacity="0" result="BackgroundImageFix"/>
<feColorMatrix in="SourceAlpha" type="matrix" values="0 0 0 0 0 0 0 0 0 0 0 0 0 0 0 0 0 0 127 0" result="hardAlpha"/>
<feOffset/>
<feGaussianBlur stdDeviation="10"/>
<feComposite in2="hardAlpha" operator="out"/>
<feColorMatrix type="matrix" values="0 0 0 0 1 0 0 0 0 1 0 0 0 0 1 0 0 0 0.7 0"/>
<feBlend mode="normal" in2="BackgroundImageFix" result="effect1_dropShadow_2081_2232"/>
<feBlend mode="normal" in="SourceGraphic" in2="effect1_dropShadow_2081_2232" result="shape"/>
</filter>
</defs>
</svg>
