<svg width="155" height="87" viewBox="0 0 155 87" fill="none" xmlns="http://www.w3.org/2000/svg">
<path d="M135.369 69.5342H19.6307L0 46.4994L19.6307 23.4646H135.369L155 46.4994L135.369 69.5342ZM19.9518 68.8484H135.048L154.101 46.4994L135.048 24.1504H19.9518L0.898976 46.4994L19.9518 68.8484Z" fill="#A07CDF"/>
<path d="M134.094 66.7908H20.9058L3.61426 46.4993L20.9058 26.2079H134.094L151.386 46.4993L134.094 66.7908ZM21.2268 66.105H133.782L150.496 46.4993L133.782 26.8937H21.2268L4.51323 46.4993L21.2268 66.105Z" fill="#A07CDF"/>
<path d="M21.3094 26.7931L20.8232 26.3084L35.9499 11.2293H85.9531L96.1354 1.07898H114.656V1.76481H96.4198L86.2375 11.9151H36.2343L21.3094 26.7931Z" fill="#A07CDF"/>
<path d="M96.8876 17.5299H67.0563L61.323 11.8146L61.8092 11.33L67.3406 16.844H96.8876V17.5299Z" fill="#A07CDF"/>
<path d="M114.656 2.85306C115.446 2.85306 116.087 2.21438 116.087 1.42653C116.087 0.638679 115.446 0 114.656 0C113.866 0 113.225 0.638679 113.225 1.42653C113.225 2.21438 113.866 2.85306 114.656 2.85306Z" fill="#A07CDF"/>
<path d="M96.8876 18.6089C97.6779 18.6089 98.3186 17.9702 98.3186 17.1824C98.3186 16.3945 97.6779 15.7559 96.8876 15.7559C96.0972 15.7559 95.4565 16.3945 95.4565 17.1824C95.4565 17.9702 96.0972 18.6089 96.8876 18.6089Z" fill="#A07CDF"/>
<path d="M67.8636 87.0091C68.654 87.0091 69.2947 86.3704 69.2947 85.5825C69.2947 84.7947 68.654 84.156 67.8636 84.156C67.0733 84.156 66.4326 84.7947 66.4326 85.5825C66.4326 86.3704 67.0733 87.0091 67.8636 87.0091Z" fill="#A07CDF"/>
<path d="M134.158 66.5622H21.1718L3.92615 46.4811L6.01764 44.6979L22.4377 63.8189H132.893L149.313 44.6979L151.404 46.4811L134.158 66.5622Z" fill="#A07CDF"/>
<path d="M82.0086 85.921H67.8635V85.2352H81.7243L89.3839 77.6087H126.288L134.966 68.949L135.452 69.4336L126.572 78.2946H89.6683L82.0086 85.921Z" fill="#A07CDF"/>
<path d="M52.9414 38.2734V51H50.3398V38.2734H52.9414ZM59.252 51.1934C56.3691 51.1846 54.5674 49.207 54.5762 46.2539C54.5674 43.3096 56.3691 41.332 59.252 41.332C62.1436 41.332 63.9365 43.3096 63.9453 46.2539C63.9365 49.207 62.1436 51.1846 59.252 51.1934ZM57.2129 46.2539C57.2129 47.9238 57.9072 49.1631 59.2695 49.1719C60.5967 49.1631 61.2998 47.9238 61.291 46.2539C61.2998 44.5752 60.5967 43.3184 59.2695 43.3184C57.9072 43.3184 57.2129 44.5752 57.2129 46.2539ZM69.8691 54.7793C67.2324 54.7793 65.6064 53.5928 65.457 51.791H68.0234C68.1641 52.5557 68.8848 52.8984 69.9219 52.8984C71.126 52.8984 71.9346 52.3799 71.9434 51.0527V49.3125H71.8203C71.4775 50.0859 70.6338 50.8682 69.0957 50.8594C66.9424 50.8682 65.2109 49.3477 65.2109 46.166C65.2109 42.9404 66.9863 41.332 69.0957 41.332C70.6953 41.332 71.4688 42.2812 71.8203 43.0547H71.9258V41.4551H74.5098V51.1055C74.501 53.54 72.585 54.7793 69.8691 54.7793ZM67.8828 46.2012C67.874 47.8535 68.5859 48.8994 69.9043 48.9082C71.2051 48.8994 71.9434 47.8975 71.9434 46.2012C71.9434 44.5049 71.2139 43.4062 69.9043 43.4062C68.5771 43.4062 67.874 44.5576 67.8828 46.2012ZM84.9688 51.1934C82.0859 51.1846 80.2842 49.207 80.293 46.2539C80.2842 43.3096 82.0859 41.332 84.9688 41.332C87.8604 41.332 89.6533 43.3096 89.6621 46.2539C89.6533 49.207 87.8604 51.1846 84.9688 51.1934ZM82.9297 46.2539C82.9297 47.9238 83.624 49.1631 84.9863 49.1719C86.3135 49.1631 87.0166 47.9238 87.0078 46.2539C87.0166 44.5752 86.3135 43.3184 84.9863 43.3184C83.624 43.3184 82.9297 44.5752 82.9297 46.2539ZM97.4141 46.9395V41.4551H100.016V51H97.5195V49.2773H97.4141C96.9834 50.3848 95.9551 51.123 94.5137 51.123C92.6064 51.123 91.2969 49.7695 91.2969 47.5371V41.4551H93.8984V47.0801C93.8984 48.2139 94.5488 48.917 95.5684 48.9258C96.5176 48.917 97.4141 48.2402 97.4141 46.9395ZM107.064 41.4551V43.4062H105.271V48.0645C105.263 48.8291 105.641 49.0137 106.168 49.0312C106.432 49.0312 106.889 49.0049 107.205 48.9785V51.0352C106.924 51.0791 106.458 51.1318 105.816 51.123C103.936 51.1318 102.652 50.2881 102.67 48.4336V43.4062H101.352V41.4551H102.67V39.1699H105.271V41.4551H107.064Z" fill="#A07CDF"/>
</svg>
