<svg width="195" height="127" viewBox="0 0 195 127" fill="none" xmlns="http://www.w3.org/2000/svg">
<g filter="url(#filter0_d_25_3230)">
<path d="M20.5 66.5L40 44H155L174.5 66.5L155 89H39.5L20.5 66.5Z" fill="#FFFCFF" fill-opacity="0.1"/>
<path d="M155.369 89.5342H39.6307L20 66.4994L39.6307 43.4646H155.369L175 66.4994L155.369 89.5342ZM39.9518 88.8484H155.048L174.101 66.4994L155.048 44.1504H39.9518L20.899 66.4994L39.9518 88.8484Z" fill="#A07CDF"/>
<path d="M154.094 86.7908H40.9058L23.6143 66.4993L40.9058 46.2079H154.094L171.386 66.4993L154.094 86.7908ZM41.2268 86.105H153.782L170.496 66.4993L153.782 46.8937H41.2268L24.5132 66.4993L41.2268 86.105Z" fill="#A07CDF"/>
<path d="M41.3094 46.7931L40.8232 46.3084L55.9499 31.2293H105.953L116.135 21.079H134.656V21.7648H116.42L106.238 31.9151H56.2343L41.3094 46.7931Z" fill="#A07CDF"/>
<path d="M116.888 37.5299H87.0563L81.323 31.8146L81.8092 31.33L87.3406 36.844H116.888V37.5299Z" fill="#A07CDF"/>
<path d="M134.656 22.8531C135.446 22.8531 136.087 22.2144 136.087 21.4265C136.087 20.6387 135.446 20 134.656 20C133.866 20 133.225 20.6387 133.225 21.4265C133.225 22.2144 133.866 22.8531 134.656 22.8531Z" fill="#A07CDF"/>
<path d="M116.888 38.6089C117.678 38.6089 118.319 37.9702 118.319 37.1824C118.319 36.3945 117.678 35.7559 116.888 35.7559C116.097 35.7559 115.457 36.3945 115.457 37.1824C115.457 37.9702 116.097 38.6089 116.888 38.6089Z" fill="#A07CDF"/>
<path d="M87.8636 107.009C88.654 107.009 89.2947 106.37 89.2947 105.583C89.2947 104.795 88.654 104.156 87.8636 104.156C87.0733 104.156 86.4326 104.795 86.4326 105.583C86.4326 106.37 87.0733 107.009 87.8636 107.009Z" fill="#A07CDF"/>
<path d="M154.159 86.5622H41.1719L23.9263 66.4811L26.0178 64.6979L42.4378 83.8189H152.893L169.313 64.6979L171.404 66.4811L154.159 86.5622Z" fill="#A07CDF"/>
<path d="M102.009 105.921H87.8635V105.235H101.724L109.384 97.6087H146.288L154.966 88.949L155.452 89.4336L146.572 98.2946H109.668L102.009 105.921Z" fill="#A07CDF"/>
<path d="M72.9414 58.2734V71H70.3398V58.2734H72.9414ZM79.252 71.1934C76.3691 71.1846 74.5674 69.207 74.5762 66.2539C74.5674 63.3096 76.3691 61.332 79.252 61.332C82.1436 61.332 83.9365 63.3096 83.9453 66.2539C83.9365 69.207 82.1436 71.1846 79.252 71.1934ZM77.2129 66.2539C77.2129 67.9238 77.9072 69.1631 79.2695 69.1719C80.5967 69.1631 81.2998 67.9238 81.291 66.2539C81.2998 64.5752 80.5967 63.3184 79.2695 63.3184C77.9072 63.3184 77.2129 64.5752 77.2129 66.2539ZM89.8691 74.7793C87.2324 74.7793 85.6064 73.5928 85.457 71.791H88.0234C88.1641 72.5557 88.8848 72.8984 89.9219 72.8984C91.126 72.8984 91.9346 72.3799 91.9434 71.0527V69.3125H91.8203C91.4775 70.0859 90.6338 70.8682 89.0957 70.8594C86.9424 70.8682 85.2109 69.3477 85.2109 66.166C85.2109 62.9404 86.9863 61.332 89.0957 61.332C90.6953 61.332 91.4688 62.2812 91.8203 63.0547H91.9258V61.4551H94.5098V71.1055C94.501 73.54 92.585 74.7793 89.8691 74.7793ZM87.8828 66.2012C87.874 67.8535 88.5859 68.8994 89.9043 68.9082C91.2051 68.8994 91.9434 67.8975 91.9434 66.2012C91.9434 64.5049 91.2139 63.4062 89.9043 63.4062C88.5771 63.4062 87.874 64.5576 87.8828 66.2012ZM104.969 71.1934C102.086 71.1846 100.284 69.207 100.293 66.2539C100.284 63.3096 102.086 61.332 104.969 61.332C107.86 61.332 109.653 63.3096 109.662 66.2539C109.653 69.207 107.86 71.1846 104.969 71.1934ZM102.93 66.2539C102.93 67.9238 103.624 69.1631 104.986 69.1719C106.313 69.1631 107.017 67.9238 107.008 66.2539C107.017 64.5752 106.313 63.3184 104.986 63.3184C103.624 63.3184 102.93 64.5752 102.93 66.2539ZM117.414 66.9395V61.4551H120.016V71H117.52V69.2773H117.414C116.983 70.3848 115.955 71.123 114.514 71.123C112.606 71.123 111.297 69.7695 111.297 67.5371V61.4551H113.898V67.0801C113.898 68.2139 114.549 68.917 115.568 68.9258C116.518 68.917 117.414 68.2402 117.414 66.9395ZM127.064 61.4551V63.4062H125.271V68.0645C125.263 68.8291 125.641 69.0137 126.168 69.0312C126.432 69.0312 126.889 69.0049 127.205 68.9785V71.0352C126.924 71.0791 126.458 71.1318 125.816 71.123C123.936 71.1318 122.652 70.2881 122.67 68.4336V63.4062H121.352V61.4551H122.67V59.1699H125.271V61.4551H127.064Z" fill="#A07CDF"/>
</g>
<defs>
<filter id="filter0_d_25_3230" x="0" y="0" width="195" height="127.009" filterUnits="userSpaceOnUse" color-interpolation-filters="sRGB">
<feFlood flood-opacity="0" result="BackgroundImageFix"/>
<feColorMatrix in="SourceAlpha" type="matrix" values="0 0 0 0 0 0 0 0 0 0 0 0 0 0 0 0 0 0 127 0" result="hardAlpha"/>
<feOffset/>
<feGaussianBlur stdDeviation="10"/>
<feComposite in2="hardAlpha" operator="out"/>
<feColorMatrix type="matrix" values="0 0 0 0 1 0 0 0 0 1 0 0 0 0 1 0 0 0 0.35 0"/>
<feBlend mode="normal" in2="BackgroundImageFix" result="effect1_dropShadow_25_3230"/>
<feBlend mode="normal" in="SourceGraphic" in2="effect1_dropShadow_25_3230" result="shape"/>
</filter>
</defs>
</svg>
