<svg width="226" height="127" viewBox="0 0 226 127" fill="none" xmlns="http://www.w3.org/2000/svg">
<g clip-path="url(#clip0_25_1798)">
<g filter="url(#filter0_d_25_1798)">
<path d="M197.377 101.504H28.6228L0 67.8785L28.6228 34.253H197.377L226 67.8785L197.377 101.504ZM29.091 100.503H196.909L224.689 67.8785L196.909 35.2541H29.091L1.31077 67.8785L29.091 100.503Z" fill="white"/>
<path d="M195.518 97.4993H30.4822L5.27002 67.8784L30.4822 38.2576H195.518L220.73 67.8784L195.518 97.4993ZM30.9503 96.4982H195.063L219.433 67.8784L195.063 39.2587H30.9503L6.58078 67.8784L30.9503 96.4982Z" fill="white"/>
<path d="M31.0707 39.1118L30.3618 38.4043L52.4174 16.3922H125.325L140.172 1.57507H167.176V2.57623H140.586L125.74 17.3933H52.8321L31.0707 39.1118Z" fill="white"/>
<path d="M141.269 25.5896H97.7726L89.4131 17.2467L90.122 16.5392L98.1872 24.5885H141.269V25.5896Z" fill="white"/>
<path d="M167.176 4.16481C168.328 4.16481 169.262 3.23249 169.262 2.0824C169.262 0.932324 168.328 0 167.176 0C166.024 0 165.089 0.932324 165.089 2.0824C165.089 3.23249 166.024 4.16481 167.176 4.16481Z" fill="white"/>
<path d="M141.268 27.1648C142.421 27.1648 143.355 26.2324 143.355 25.0823C143.355 23.9323 142.421 22.9999 141.268 22.9999C140.116 22.9999 139.182 23.9323 139.182 25.0823C139.182 26.2324 140.116 27.1648 141.268 27.1648Z" fill="white"/>
<path d="M98.9493 127.013C100.102 127.013 101.036 126.081 101.036 124.931C101.036 123.781 100.102 122.848 98.9493 122.848C97.797 122.848 96.8628 123.781 96.8628 124.931C96.8628 126.081 97.797 127.013 98.9493 127.013Z" fill="white"/>
<path d="M195.612 97.1656H30.8699L5.72461 67.8517L8.77414 65.2487L32.7157 93.161H193.766L217.707 65.2487L220.757 67.8517L195.612 97.1656Z" fill="white"/>
<path d="M119.574 125.425H98.9492V124.424H119.159L130.327 113.291H184.136L196.788 100.65L197.497 101.357L184.55 114.292H130.742L119.574 125.425Z" fill="white"/>
<path d="M61.1543 70.6074H63.9258L65.1074 72.1221C65.8486 71.2627 66.2783 69.9414 66.2676 68.2227C66.2783 64.8926 64.6885 63.0986 62.293 63.0879C59.876 63.0986 58.2969 64.8926 58.2969 68.2227C58.2969 71.542 59.876 73.3467 62.293 73.3574C62.6045 73.3574 62.9053 73.3252 63.1846 73.2607L61.1543 70.6074ZM55.0098 68.2227C55.0098 63.1416 58.1465 60.2305 62.293 60.2305C66.4072 60.2305 69.5547 63.1416 69.5547 68.2227C69.5547 71.0049 68.6094 73.1318 67.084 74.4961L69.2969 77.2891H66.2676L65.0215 75.7422C64.1836 76.0537 63.2598 76.2148 62.293 76.2148C58.1465 76.2148 55.0098 73.2822 55.0098 68.2227ZM79.3086 71.0371V64.334H82.4883V76H79.4375V73.8945H79.3086C78.7822 75.248 77.5254 76.1504 75.7637 76.1504C73.4326 76.1504 71.832 74.4961 71.832 71.7676V64.334H75.0117V71.209C75.0117 72.5947 75.8066 73.4541 77.0527 73.4648C78.2129 73.4541 79.3086 72.627 79.3086 71.0371ZM90.2441 76.2363C86.667 76.2256 84.4756 73.916 84.4863 70.2207C84.4756 66.6221 86.6992 64.1836 90.1152 64.1836C93.1768 64.1836 95.5938 66.1172 95.5938 70.0918V70.9941H87.623C87.623 72.7559 88.665 73.8408 90.3086 73.8516C91.3936 73.8408 92.167 73.3682 92.4785 72.6699H95.5078C95.0566 74.8291 93.123 76.2256 90.2441 76.2363ZM87.623 68.9961H92.5859C92.5752 67.5781 91.5977 66.5576 90.1797 66.5684C88.7188 66.5576 87.6875 67.6533 87.623 68.9961ZM104.252 67.793C104.112 66.9766 103.403 66.4502 102.34 66.4395C101.309 66.4502 100.524 66.9336 100.535 67.6426C100.524 68.1689 100.933 68.5771 102.039 68.8027L104.123 69.2324C106.39 69.7051 107.485 70.7148 107.496 72.3906C107.485 74.6895 105.423 76.2256 102.318 76.2363C99.1709 76.2256 97.3232 74.8184 97.0547 72.541H100.256C100.406 73.4541 101.147 73.9268 102.318 73.9375C103.479 73.9268 104.252 73.4648 104.252 72.7129C104.252 72.1113 103.758 71.7354 102.662 71.5098L100.729 71.123C98.5049 70.6826 97.3662 69.5439 97.377 67.8145C97.3662 65.5801 99.2891 64.1836 102.297 64.1836C105.24 64.1836 107.066 65.5801 107.238 67.793H104.252ZM115.596 64.334V66.7188H113.404V72.4121C113.394 73.3467 113.855 73.5723 114.5 73.5938C114.822 73.5938 115.381 73.5615 115.768 73.5293V76.043C115.424 76.0967 114.854 76.1611 114.07 76.1504C111.771 76.1611 110.203 75.1299 110.225 72.8633V66.7188H108.613V64.334H110.225V61.541H113.404V64.334H115.596ZM117.916 76V60.4453H124.104C127.53 60.4453 129.271 62.0996 129.26 64.4414C129.271 66.2676 128.067 67.417 126.467 67.7715V67.9219C128.218 68.0078 129.872 69.4043 129.883 71.7031C129.872 74.1738 128.024 76 124.512 76H117.916ZM121.139 73.3359H123.867C125.736 73.3467 126.542 72.5732 126.531 71.4023C126.542 70.0918 125.543 69.168 123.953 69.168H121.139V73.3359ZM121.139 66.9551H123.631C124.984 66.9658 126.005 66.2031 125.994 64.957C126.005 63.8291 125.167 63.0664 123.695 63.0664H121.139V66.9551ZM137.102 76.2363C133.578 76.2256 131.376 73.8086 131.387 70.1992C131.376 66.6006 133.578 64.1836 137.102 64.1836C140.636 64.1836 142.827 66.6006 142.838 70.1992C142.827 73.8086 140.636 76.2256 137.102 76.2363ZM134.609 70.1992C134.609 72.2402 135.458 73.7549 137.123 73.7656C138.745 73.7549 139.604 72.2402 139.594 70.1992C139.604 68.1475 138.745 66.6113 137.123 66.6113C135.458 66.6113 134.609 68.1475 134.609 70.1992ZM150.078 76.2363C146.555 76.2256 144.353 73.8086 144.363 70.1992C144.353 66.6006 146.555 64.1836 150.078 64.1836C153.612 64.1836 155.804 66.6006 155.814 70.1992C155.804 73.8086 153.612 76.2256 150.078 76.2363ZM147.586 70.1992C147.586 72.2402 148.435 73.7549 150.1 73.7656C151.722 73.7549 152.581 72.2402 152.57 70.1992C152.581 68.1475 151.722 66.6113 150.1 66.6113C148.435 66.6113 147.586 68.1475 147.586 70.1992ZM157.812 76V60.4453H160.992V68.8027H161.164L164.945 64.334H168.598L164.247 69.3828L168.834 76H165.096L161.884 71.252L160.992 72.2617V76H157.812Z" fill="white"/>
</g>
</g>
<defs>
<filter id="filter0_d_25_1798" x="-20" y="-20" width="266" height="167.013" filterUnits="userSpaceOnUse" color-interpolation-filters="sRGB">
<feFlood flood-opacity="0" result="BackgroundImageFix"/>
<feColorMatrix in="SourceAlpha" type="matrix" values="0 0 0 0 0 0 0 0 0 0 0 0 0 0 0 0 0 0 127 0" result="hardAlpha"/>
<feOffset/>
<feGaussianBlur stdDeviation="10"/>
<feComposite in2="hardAlpha" operator="out"/>
<feColorMatrix type="matrix" values="0 0 0 0 1 0 0 0 0 1 0 0 0 0 1 0 0 0 0.7 0"/>
<feBlend mode="normal" in2="BackgroundImageFix" result="effect1_dropShadow_25_1798"/>
<feBlend mode="normal" in="SourceGraphic" in2="effect1_dropShadow_25_1798" result="shape"/>
</filter>
<clipPath id="clip0_25_1798">
<rect width="226" height="127" fill="white"/>
</clipPath>
</defs>
</svg>
