<svg width="1380" height="206" viewBox="0 0 1380 206" fill="none" xmlns="http://www.w3.org/2000/svg">
    <g filter="url(#filter0_d_2129_2804)">
        <mask id="path-1-inside-1_2129_2804" fill="white">
            <path fill-rule="evenodd" clip-rule="evenodd"
                  d="M930 23.1203C930 21.397 928.603 20 926.88 20H25C22.2386 20 20 22.2386 20 25V110.987C20 111.178 20.2093 111.294 20.3707 111.193C20.4492 111.144 20.5488 111.144 20.6273 111.193L128.798 178.698C129.91 179.392 131.194 179.759 132.504 179.759H286.88C288.603 179.759 290 181.156 290 182.88V182.88C290 184.603 291.397 186 293.12 186H1195C1197.76 186 1200 183.761 1200 181V96.7266C1200 95.0014 1199.11 93.3981 1197.65 92.4848L1093.2 27.3021C1092.09 26.6084 1090.8 26.2406 1089.49 26.2406H933.12C931.397 26.2406 930 24.8436 930 23.1203V23.1203Z"/>
        </mask>
        <path fill-rule="evenodd" clip-rule="evenodd"
              d="M930 23.1203C930 21.397 928.603 20 926.88 20H25C22.2386 20 20 22.2386 20 25V110.987C20 111.178 20.2093 111.294 20.3707 111.193C20.4492 111.144 20.5488 111.144 20.6273 111.193L128.798 178.698C129.91 179.392 131.194 179.759 132.504 179.759H286.88C288.603 179.759 290 181.156 290 182.88V182.88C290 184.603 291.397 186 293.12 186H1195C1197.76 186 1200 183.761 1200 181V96.7266C1200 95.0014 1199.11 93.3981 1197.65 92.4848L1093.2 27.3021C1092.09 26.6084 1090.8 26.2406 1089.49 26.2406H933.12C931.397 26.2406 930 24.8436 930 23.1203V23.1203Z"
              fill="#E3DAF0" fill-opacity="0.1" shape-rendering="crispEdges"/>
        <path d="M20.3707 111.193L19.8413 110.344L19.8413 110.345L20.3707 111.193ZM20.6273 111.193L20.0979 112.041L20.0979 112.041L20.6273 111.193ZM1197.65 92.4848L1197.12 93.3331L1197.12 93.3331L1197.65 92.4848ZM1093.2 27.3021L1092.67 28.1505L1093.2 27.3021ZM128.798 178.698L129.327 177.85L128.798 178.698ZM25 21H926.88V19H25V21ZM21 25C21 22.7909 22.7909 21 25 21V19C21.6863 19 19 21.6863 19 25H21ZM21 110.987V25H19V110.987H21ZM19.8413 110.345C20.3459 110.03 21 110.392 21 110.987H19C19 111.963 20.0726 112.558 20.9001 112.041L19.8413 110.345ZM21.1568 110.345C20.7543 110.093 20.2438 110.093 19.8413 110.344L20.9001 112.041C20.6546 112.194 20.3434 112.194 20.0979 112.041L21.1568 110.345ZM129.327 177.85L21.1568 110.345L20.0979 112.041L128.269 179.546L129.327 177.85ZM286.88 178.759H132.504V180.759H286.88V178.759ZM1195 185H293.12V187H1195V185ZM1199 181C1199 183.209 1197.21 185 1195 185V187C1198.31 187 1201 184.314 1201 181H1199ZM1199 96.7266V181H1201V96.7266H1199ZM1197.12 93.3331C1198.29 94.0638 1199 95.3464 1199 96.7266H1201C1201 94.6564 1199.93 92.7324 1198.18 91.6364L1197.12 93.3331ZM1092.67 28.1505L1197.12 93.3331L1198.18 91.6364L1093.73 26.4538L1092.67 28.1505ZM1089.49 25.2406H933.12V27.2406H1089.49V25.2406ZM933.12 25.2406C931.949 25.2406 931 24.2913 931 23.1203H929C929 25.3959 930.845 27.2406 933.12 27.2406V25.2406ZM1093.73 26.4538C1092.46 25.661 1090.99 25.2406 1089.49 25.2406V27.2406C1090.61 27.2406 1091.72 27.5559 1092.67 28.1505L1093.73 26.4538ZM289 182.88C289 185.155 290.845 187 293.12 187V185C291.949 185 291 184.051 291 182.88H289ZM286.88 180.759C288.051 180.759 289 181.709 289 182.88H291C291 180.604 289.155 178.759 286.88 178.759V180.759ZM128.269 179.546C129.539 180.339 131.006 180.759 132.504 180.759V178.759C131.381 178.759 130.28 178.444 129.327 177.85L128.269 179.546ZM926.88 21C928.051 21 929 21.9493 929 23.1203H931C931 20.8447 929.155 19 926.88 19V21Z"
              fill="#A07CDF" mask="url(#path-1-inside-1_2129_2804)"/>
    </g>
    <defs>
        <filter id="filter0_d_2129_2804" x="0" y="0" width="1220" height="206" filterUnits="userSpaceOnUse"
                color-interpolation-filters="sRGB">
            <feFlood flood-opacity="0" result="BackgroundImageFix"/>
            <feColorMatrix in="SourceAlpha" type="matrix" values="0 0 0 0 0 0 0 0 0 0 0 0 0 0 0 0 0 0 127 0"
                           result="hardAlpha"/>
            <feOffset/>
            <feGaussianBlur stdDeviation="10"/>
            <feComposite in2="hardAlpha" operator="out"/>
            <feColorMatrix type="matrix" values="0 0 0 0 1 0 0 0 0 1 0 0 0 0 1 0 0 0 0.35 0"/>
            <feBlend mode="normal" in2="BackgroundImageFix" result="effect1_dropShadow_2129_2804"/>
            <feBlend mode="normal" in="SourceGraphic" in2="effect1_dropShadow_2129_2804" result="shape"/>
        </filter>
    </defs>
</svg>
