<svg width="253" height="203" viewBox="0 0 253 203" fill="none" xmlns="http://www.w3.org/2000/svg">
<g filter="url(#filter0_d_2126_2646)">
<path d="M229.463 158.073H176.231L166 147.866L166.868 147L176.738 156.848H229.463V158.073Z" fill="white"/>
<path d="M229.463 160C230.873 160 232.016 158.859 232.016 157.452C232.016 156.045 230.873 154.905 229.463 154.905C228.052 154.905 226.909 156.045 226.909 157.452C226.909 158.859 228.052 160 229.463 160Z" fill="white"/>
</g>
<g filter="url(#filter1_d_2126_2646)">
<path d="M101.191 182.381C145.95 182.381 182.381 145.954 182.381 101.182C182.381 56.4104 145.95 20 101.191 20C56.4314 20 19.9999 56.4277 19.9999 101.182C19.9999 145.937 56.4314 182.364 101.191 182.364V182.381ZM101.191 28.6199C141.208 28.6199 173.761 61.1686 173.761 101.182C173.761 141.196 141.208 173.744 101.191 173.744C61.1728 173.744 28.6207 141.196 28.6207 101.182C28.6207 61.1686 61.1556 28.6199 101.191 28.6199Z" fill="white"/>
<path d="M101.19 165.935C136.898 165.935 165.95 136.886 165.95 101.182C165.95 65.4788 136.881 36.447 101.19 36.447C65.5003 36.447 36.431 65.496 36.431 101.2C36.431 136.903 65.4831 165.952 101.19 165.952V165.935ZM101.19 39.895C135.001 39.895 162.502 67.3924 162.502 101.2C162.502 135.007 135.001 162.504 101.19 162.504C67.3797 162.504 39.8793 135.007 39.8793 101.2C39.8793 67.3924 67.3797 39.895 101.19 39.895Z" fill="white"/>
</g>
<defs>
<filter id="filter0_d_2126_2646" x="146" y="127" width="106.016" height="53" filterUnits="userSpaceOnUse" color-interpolation-filters="sRGB">
<feFlood flood-opacity="0" result="BackgroundImageFix"/>
<feColorMatrix in="SourceAlpha" type="matrix" values="0 0 0 0 0 0 0 0 0 0 0 0 0 0 0 0 0 0 127 0" result="hardAlpha"/>
<feOffset/>
<feGaussianBlur stdDeviation="10"/>
<feComposite in2="hardAlpha" operator="out"/>
<feColorMatrix type="matrix" values="0 0 0 0 1 0 0 0 0 1 0 0 0 0 1 0 0 0 0.35 0"/>
<feBlend mode="normal" in2="BackgroundImageFix" result="effect1_dropShadow_2126_2646"/>
<feBlend mode="normal" in="SourceGraphic" in2="effect1_dropShadow_2126_2646" result="shape"/>
</filter>
<filter id="filter1_d_2126_2646" x="-0.000244141" y="0" width="202.382" height="202.382" filterUnits="userSpaceOnUse" color-interpolation-filters="sRGB">
<feFlood flood-opacity="0" result="BackgroundImageFix"/>
<feColorMatrix in="SourceAlpha" type="matrix" values="0 0 0 0 0 0 0 0 0 0 0 0 0 0 0 0 0 0 127 0" result="hardAlpha"/>
<feOffset/>
<feGaussianBlur stdDeviation="10"/>
<feComposite in2="hardAlpha" operator="out"/>
<feColorMatrix type="matrix" values="0 0 0 0 1 0 0 0 0 1 0 0 0 0 1 0 0 0 0.35 0"/>
<feBlend mode="normal" in2="BackgroundImageFix" result="effect1_dropShadow_2126_2646"/>
<feBlend mode="normal" in="SourceGraphic" in2="effect1_dropShadow_2126_2646" result="shape"/>
</filter>
</defs>
</svg>
