<svg width="1220" height="781" viewBox="0 0 1220 781" fill="none" xmlns="http://www.w3.org/2000/svg">
<g filter="url(#filter0_d_2081_2201)">
<mask id="path-1-inside-1_2081_2201" fill="white">
<path fill-rule="evenodd" clip-rule="evenodd" d="M930 27C930 23.134 926.866 20 923 20H25C22.2386 20 20 22.2386 20 25V427.11C20 427.304 20.2705 427.351 20.3361 427.168C20.3909 427.015 20.6071 427.015 20.662 427.168L128.835 728.507C129.833 731.288 132.469 733.142 135.423 733.142H283C286.866 733.142 290 736.276 290 740.142V754C290 757.866 293.134 761 297 761H1195C1197.76 761 1200 758.761 1200 756V350.986C1200 350.41 1199.9 349.839 1199.71 349.297L1093.16 52.4923C1092.16 49.7119 1089.53 47.8574 1086.57 47.8574H937C933.134 47.8574 930 44.7234 930 40.8574V27Z"/>
</mask>
<path fill-rule="evenodd" clip-rule="evenodd" d="M930 27C930 23.134 926.866 20 923 20H25C22.2386 20 20 22.2386 20 25V427.11C20 427.304 20.2705 427.351 20.3361 427.168C20.3909 427.015 20.6071 427.015 20.662 427.168L128.835 728.507C129.833 731.288 132.469 733.142 135.423 733.142H283C286.866 733.142 290 736.276 290 740.142V754C290 757.866 293.134 761 297 761H1195C1197.76 761 1200 758.761 1200 756V350.986C1200 350.41 1199.9 349.839 1199.71 349.297L1093.16 52.4923C1092.16 49.7119 1089.53 47.8574 1086.57 47.8574H937C933.134 47.8574 930 44.7234 930 40.8574V27Z" fill="#E3DAF0" fill-opacity="0.1" shape-rendering="crispEdges"/>
<path d="M20.3361 427.168L19.3949 426.83L19.3949 426.83L20.3361 427.168ZM20.662 427.168L21.6032 426.83L21.6032 426.83L20.662 427.168ZM1199.71 349.297L1198.76 349.635L1198.76 349.635L1199.71 349.297ZM1093.16 52.4923L1094.1 52.1545L1093.16 52.4923ZM128.835 728.507L127.894 728.845L128.835 728.507ZM25 21H923V19H25V21ZM21 25C21 22.7909 22.7909 21 25 21V19C21.6863 19 19 21.6863 19 25H21ZM21 427.11V25H19V427.11H21ZM19.3949 426.83C19.7081 425.958 21 426.182 21 427.11H19C19 428.425 20.8329 428.744 21.2773 427.506L19.3949 426.83ZM21.6032 426.83C21.2314 425.795 19.7667 425.795 19.3949 426.83L21.2773 427.506C21.0152 428.236 19.9829 428.236 19.7208 427.506L21.6032 426.83ZM129.776 728.17L21.6032 426.83L19.7208 427.506L127.894 728.845L129.776 728.17ZM283 732.142H135.423V734.142H283V732.142ZM291 754V740.142H289V754H291ZM1195 760H297V762H1195V760ZM1199 756C1199 758.209 1197.21 760 1195 760V762C1198.31 762 1201 759.314 1201 756H1199ZM1199 350.986V756H1201V350.986H1199ZM1198.76 349.635C1198.92 350.068 1199 350.526 1199 350.986H1201C1201 350.295 1200.88 349.609 1200.65 348.959L1198.76 349.635ZM1092.22 52.8302L1198.76 349.635L1200.65 348.959L1094.1 52.1545L1092.22 52.8302ZM1086.57 46.8574H937V48.8574H1086.57V46.8574ZM931 40.8574V27H929V40.8574H931ZM937 46.8574C933.686 46.8574 931 44.1711 931 40.8574H929C929 45.2757 932.582 48.8574 937 48.8574V46.8574ZM1094.1 52.1545C1092.96 48.9769 1089.95 46.8574 1086.57 46.8574V48.8574C1089.1 48.8574 1091.36 50.447 1092.22 52.8302L1094.1 52.1545ZM289 754C289 758.418 292.582 762 297 762V760C293.686 760 291 757.314 291 754H289ZM283 734.142C286.314 734.142 289 736.829 289 740.142H291C291 735.724 287.418 732.142 283 732.142V734.142ZM127.894 728.845C129.034 732.023 132.047 734.142 135.423 734.142V732.142C132.891 732.142 130.632 730.553 129.776 728.17L127.894 728.845ZM923 21C926.314 21 929 23.6863 929 27H931C931 22.5817 927.418 19 923 19V21Z" fill="#A07CDF" mask="url(#path-1-inside-1_2081_2201)"/>
</g>
<defs>
<filter id="filter0_d_2081_2201" x="0" y="0" width="1220" height="781" filterUnits="userSpaceOnUse" color-interpolation-filters="sRGB">
<feFlood flood-opacity="0" result="BackgroundImageFix"/>
<feColorMatrix in="SourceAlpha" type="matrix" values="0 0 0 0 0 0 0 0 0 0 0 0 0 0 0 0 0 0 127 0" result="hardAlpha"/>
<feOffset/>
<feGaussianBlur stdDeviation="10"/>
<feComposite in2="hardAlpha" operator="out"/>
<feColorMatrix type="matrix" values="0 0 0 0 1 0 0 0 0 1 0 0 0 0 1 0 0 0 0.35 0"/>
<feBlend mode="normal" in2="BackgroundImageFix" result="effect1_dropShadow_2081_2201"/>
<feBlend mode="normal" in="SourceGraphic" in2="effect1_dropShadow_2081_2201" result="shape"/>
</filter>
</defs>
</svg>
