<svg width="195" height="127" viewBox="0 0 195 127" fill="none" xmlns="http://www.w3.org/2000/svg">
    <g filter="url(#filter0_d_32_21782)">
        <path d="M20.5 66.5L40 44H155L174.5 66.5L155 89H39.5L20.5 66.5Z" fill="#FFFCFF" fill-opacity="0.1"/>
        <path d="M155.369 89.5342H39.6307L20 66.4994L39.6307 43.4646H155.369L175 66.4994L155.369 89.5342ZM39.9518 88.8484H155.048L174.101 66.4994L155.048 44.1504H39.9518L20.899 66.4994L39.9518 88.8484Z"
              fill="#A07CDF"/>
        <path d="M154.094 86.7909H40.9058L23.6143 66.4995L40.9058 46.208H154.094L171.386 66.4995L154.094 86.7909ZM41.2268 86.1051H153.782L170.496 66.4995L153.782 46.8938H41.2268L24.5132 66.4995L41.2268 86.1051Z"
              fill="#A07CDF"/>
        <path d="M41.3094 46.7932L40.8232 46.3086L55.9499 31.2294H105.953L116.135 21.0791H134.656V21.7649H116.42L106.238 31.9152H56.2343L41.3094 46.7932Z"
              fill="#A07CDF"/>
        <path d="M116.888 37.53H87.0563L81.323 31.8147L81.8092 31.3301L87.3406 36.8442H116.888V37.53Z" fill="#A07CDF"/>
        <path d="M134.656 22.8531C135.446 22.8531 136.087 22.2144 136.087 21.4265C136.087 20.6387 135.446 20 134.656 20C133.866 20 133.225 20.6387 133.225 21.4265C133.225 22.2144 133.866 22.8531 134.656 22.8531Z"
              fill="#A07CDF"/>
        <path d="M116.888 38.6089C117.678 38.6089 118.319 37.9702 118.319 37.1824C118.319 36.3945 117.678 35.7559 116.888 35.7559C116.097 35.7559 115.457 36.3945 115.457 37.1824C115.457 37.9702 116.097 38.6089 116.888 38.6089Z"
              fill="#A07CDF"/>
        <path d="M87.8636 107.009C88.654 107.009 89.2947 106.37 89.2947 105.583C89.2947 104.795 88.654 104.156 87.8636 104.156C87.0733 104.156 86.4326 104.795 86.4326 105.583C86.4326 106.37 87.0733 107.009 87.8636 107.009Z"
              fill="#A07CDF"/>
        <path d="M154.159 86.5623H41.1719L23.9263 66.4812L26.0178 64.698L42.4378 83.819H152.893L169.313 64.698L171.404 66.4812L154.159 86.5623Z"
              fill="#A07CDF"/>
        <path d="M102.009 105.921H87.8635V105.235H101.724L109.384 97.6087H146.288L154.966 88.949L155.452 89.4336L146.572 98.2946H109.668L102.009 105.921Z"
              fill="#A07CDF"/>
        <path d="M78.7607 72H76.1592V59.2734H78.7607V72ZM85.0713 72.1934C84.1221 72.1934 83.293 71.9883 82.584 71.5781C81.8809 71.1621 81.3389 70.582 80.958 69.8379C80.583 69.0938 80.3955 68.2324 80.3955 67.2539C80.3955 66.2754 80.583 65.417 80.958 64.6787C81.3389 63.9346 81.8809 63.3574 82.584 62.9473C83.293 62.5371 84.1221 62.332 85.0713 62.332C86.0205 62.332 86.8467 62.5371 87.5498 62.9473C88.2588 63.3574 88.8037 63.9346 89.1846 64.6787C89.5713 65.417 89.7646 66.2754 89.7646 67.2539C89.7646 68.2324 89.5713 69.0938 89.1846 69.8379C88.8037 70.582 88.2588 71.1621 87.5498 71.5781C86.8467 71.9883 86.0205 72.1934 85.0713 72.1934ZM83.0322 67.2539C83.0322 67.8223 83.1084 68.3262 83.2607 68.7656C83.4189 69.1992 83.6533 69.542 83.9639 69.7939C84.2744 70.0459 84.6494 70.1719 85.0889 70.1719C85.5166 70.1719 85.8828 70.0488 86.1875 69.8027C86.4922 69.5508 86.7207 69.208 86.873 68.7744C87.0312 68.3408 87.1104 67.8457 87.1104 67.2891C87.1104 66.7148 87.0342 66.2051 86.8818 65.7598C86.7295 65.3086 86.501 64.957 86.1963 64.7051C85.8916 64.4473 85.5225 64.3184 85.0889 64.3184C84.6494 64.3184 84.2744 64.4443 83.9639 64.6963C83.6533 64.9482 83.4189 65.2969 83.2607 65.7422C83.1084 66.1816 83.0322 66.6855 83.0322 67.2539ZM95.6885 75.7793C94.8213 75.7793 94.0654 75.6562 93.4209 75.4102C92.7764 75.1641 92.2695 74.8154 91.9004 74.3643C91.5312 73.9131 91.3232 73.3887 91.2764 72.791H93.8428C93.9131 73.1602 94.1123 73.4355 94.4404 73.6172C94.7744 73.8047 95.208 73.8984 95.7412 73.8984C96.374 73.8984 96.8662 73.749 97.2178 73.4502C97.5752 73.1572 97.7568 72.6914 97.7627 72.0527V70.3125H97.6396C97.4463 70.752 97.1211 71.1211 96.6641 71.4199C96.207 71.7188 95.624 71.8652 94.915 71.8594C94.1768 71.8652 93.5146 71.6953 92.9287 71.3496C92.3428 70.998 91.8799 70.4707 91.54 69.7676C91.2002 69.0586 91.0303 68.1914 91.0303 67.166C91.0303 66.1289 91.2031 65.2471 91.5488 64.5205C91.8945 63.7939 92.3604 63.249 92.9463 62.8857C93.5381 62.5166 94.1943 62.332 94.915 62.332C95.6357 62.332 96.2158 62.499 96.6553 62.833C97.0947 63.167 97.4229 63.5742 97.6396 64.0547H97.7451V62.4551H100.329V72.1055C100.329 72.8965 100.133 73.5674 99.7402 74.1182C99.3477 74.6689 98.8027 75.082 98.1055 75.3574C97.4141 75.6387 96.6084 75.7793 95.6885 75.7793ZM93.7021 67.1748C93.7021 68.0186 93.875 68.6836 94.2207 69.1699C94.5723 69.6562 95.0732 69.9023 95.7236 69.9082C96.374 69.9023 96.875 69.6621 97.2266 69.1875C97.584 68.7129 97.7627 68.0508 97.7627 67.2012C97.7627 66.3398 97.584 65.6602 97.2266 65.1621C96.8691 64.6582 96.3682 64.4062 95.7236 64.4062C95.0791 64.4062 94.5811 64.6582 94.2295 65.1621C93.8779 65.666 93.7021 66.3369 93.7021 67.1748ZM106.499 62.4551H109.101V72H106.499V62.4551ZM107.8 61.207C107.542 61.207 107.305 61.1484 107.088 61.0312C106.871 60.9082 106.698 60.7471 106.569 60.5479C106.44 60.3428 106.376 60.123 106.376 59.8887C106.376 59.6484 106.44 59.4258 106.569 59.2207C106.698 59.0156 106.871 58.8545 107.088 58.7373C107.305 58.6143 107.542 58.5527 107.8 58.5527C108.052 58.5527 108.286 58.6143 108.503 58.7373C108.72 58.8545 108.89 59.0156 109.013 59.2207C109.142 59.4258 109.206 59.6484 109.206 59.8887C109.206 60.123 109.142 60.3428 109.013 60.5479C108.89 60.7471 108.72 60.9082 108.503 61.0312C108.286 61.1484 108.052 61.207 107.8 61.207ZM113.724 72H111.122V62.4551H113.601V64.125H113.706C113.923 63.5684 114.28 63.1318 114.778 62.8154C115.276 62.4932 115.874 62.332 116.571 62.332C117.233 62.332 117.811 62.4785 118.303 62.7715C118.801 63.0586 119.185 63.4717 119.454 64.0107C119.724 64.5498 119.858 65.1855 119.858 65.918V72H117.274V66.375C117.269 65.7832 117.113 65.3232 116.809 64.9951C116.51 64.6611 116.091 64.4941 115.552 64.4941C115.001 64.4941 114.559 64.6699 114.225 65.0215C113.891 65.373 113.724 65.8594 113.724 66.4805V72Z"
              fill="#A07CDF"/>
    </g>
    <defs>
        <filter id="filter0_d_32_21782" x="0" y="0" width="195" height="127.009" filterUnits="userSpaceOnUse"
                color-interpolation-filters="sRGB">
            <feFlood flood-opacity="0" result="BackgroundImageFix"/>
            <feColorMatrix in="SourceAlpha" type="matrix" values="0 0 0 0 0 0 0 0 0 0 0 0 0 0 0 0 0 0 127 0"
                           result="hardAlpha"/>
            <feOffset/>
            <feGaussianBlur stdDeviation="10"/>
            <feComposite in2="hardAlpha" operator="out"/>
            <feColorMatrix type="matrix" values="0 0 0 0 1 0 0 0 0 1 0 0 0 0 1 0 0 0 0.35 0"/>
            <feBlend mode="normal" in2="BackgroundImageFix" result="effect1_dropShadow_32_21782"/>
            <feBlend mode="normal" in="SourceGraphic" in2="effect1_dropShadow_32_21782" result="shape"/>
        </filter>
    </defs>
</svg>
