<svg width="155" height="87" viewBox="0 0 155 87" fill="none" xmlns="http://www.w3.org/2000/svg">
<g clip-path="url(#clip0_32_20568)">
<path d="M135.369 69.5344H19.6307L0 46.4996L19.6307 23.4648H135.369L155 46.4996L135.369 69.5344ZM19.9518 68.8486H135.048L154.101 46.4996L135.048 24.1507H19.9518L0.898976 46.4996L19.9518 68.8486Z" fill="#A07CDF"/>
<path d="M134.094 66.7909H20.9058L3.61426 46.4995L20.9058 26.208H134.094L151.386 46.4995L134.094 66.7909ZM21.2268 66.1051H133.782L150.496 46.4995L133.782 26.8938H21.2268L4.51323 46.4995L21.2268 66.1051Z" fill="#A07CDF"/>
<path d="M21.3094 26.7932L20.8232 26.3086L35.9499 11.2294H85.9531L96.1354 1.0791H114.656V1.76493H96.4198L86.2375 11.9152H36.2343L21.3094 26.7932Z" fill="#A07CDF"/>
<path d="M96.8876 17.53H67.0563L61.323 11.8147L61.8092 11.3301L67.3406 16.8442H96.8876V17.53Z" fill="#A07CDF"/>
<path d="M114.656 2.85306C115.446 2.85306 116.087 2.21438 116.087 1.42653C116.087 0.638679 115.446 0 114.656 0C113.866 0 113.225 0.638679 113.225 1.42653C113.225 2.21438 113.866 2.85306 114.656 2.85306Z" fill="#A07CDF"/>
<path d="M96.8876 18.6089C97.6779 18.6089 98.3186 17.9702 98.3186 17.1824C98.3186 16.3945 97.6779 15.7559 96.8876 15.7559C96.0972 15.7559 95.4565 16.3945 95.4565 17.1824C95.4565 17.9702 96.0972 18.6089 96.8876 18.6089Z" fill="#A07CDF"/>
<path d="M67.8636 87.0093C68.654 87.0093 69.2947 86.3706 69.2947 85.5828C69.2947 84.7949 68.654 84.1562 67.8636 84.1562C67.0733 84.1562 66.4326 84.7949 66.4326 85.5828C66.4326 86.3706 67.0733 87.0093 67.8636 87.0093Z" fill="#A07CDF"/>
<path d="M134.159 66.5621H21.1719L3.92627 46.4809L6.01776 44.6978L22.4378 63.8187H132.893L149.313 44.6978L151.404 46.4809L134.159 66.5621Z" fill="#A07CDF"/>
<path d="M82.0086 85.9208H67.8635V85.2349H81.7243L89.3839 77.6085H126.288L134.966 68.9487L135.452 69.4334L126.572 78.2943H89.6683L82.0086 85.9208Z" fill="#A07CDF"/>
<path d="M53.5312 45.2852C53.4727 44.9512 53.3057 44.6846 53.0303 44.4854C52.7549 44.2861 52.4004 44.1836 51.9668 44.1777C51.5449 44.1836 51.1934 44.2773 50.9121 44.459C50.6309 44.6348 50.4902 44.8662 50.4902 45.1533C50.4902 45.3818 50.584 45.5781 50.7715 45.7422C50.9648 45.9004 51.2812 46.0234 51.7207 46.1113L53.4258 46.4629C54.3574 46.6562 55.0488 46.9639 55.5 47.3857C55.9512 47.8076 56.1797 48.3613 56.1855 49.0469C56.1855 49.668 56.0068 50.2158 55.6494 50.6904C55.2979 51.165 54.8027 51.5342 54.1641 51.7979C53.5254 52.0615 52.7871 52.1934 51.9492 52.1934C51.0996 52.1934 50.3643 52.0732 49.7432 51.833C49.1279 51.5869 48.6416 51.2383 48.2842 50.7871C47.9326 50.3301 47.7188 49.791 47.6426 49.1699H50.2617C50.3203 49.5391 50.4932 49.8203 50.7803 50.0137C51.0732 50.207 51.4629 50.3066 51.9492 50.3125C52.4297 50.3066 52.8135 50.2158 53.1006 50.04C53.3877 49.8584 53.5312 49.6152 53.5312 49.3105C53.5312 49.0645 53.4258 48.8623 53.2148 48.7041C53.0039 48.5459 52.6758 48.4199 52.2305 48.3262L50.6484 48.0098C49.7402 47.8281 49.0547 47.5088 48.5918 47.0518C48.1289 46.5947 47.9004 46.0117 47.9062 45.3027C47.9062 44.6992 48.0703 44.1748 48.3984 43.7295C48.7266 43.2783 49.1924 42.9326 49.7959 42.6924C50.4053 42.4521 51.1172 42.332 51.9316 42.332C52.7227 42.332 53.4141 42.4521 54.0059 42.6924C54.5977 42.9326 55.0605 43.2754 55.3945 43.7207C55.7344 44.1602 55.9277 44.6816 55.9746 45.2852H53.5312ZM57.7852 42.4551H60.3867V52H57.7852V42.4551ZM59.0859 41.207C58.8281 41.207 58.5908 41.1484 58.374 41.0312C58.1572 40.9082 57.9844 40.7471 57.8555 40.5479C57.7266 40.3428 57.6621 40.123 57.6621 39.8887C57.6621 39.6484 57.7266 39.4258 57.8555 39.2207C57.9844 39.0156 58.1572 38.8545 58.374 38.7373C58.5908 38.6143 58.8281 38.5527 59.0859 38.5527C59.3379 38.5527 59.5723 38.6143 59.7891 38.7373C60.0059 38.8545 60.1758 39.0156 60.2988 39.2207C60.4277 39.4258 60.4922 39.6484 60.4922 39.8887C60.4922 40.123 60.4277 40.3428 60.2988 40.5479C60.1758 40.7471 60.0059 40.9082 59.7891 41.0312C59.5723 41.1484 59.3379 41.207 59.0859 41.207ZM66.6973 55.7793C65.8301 55.7793 65.0742 55.6562 64.4297 55.4102C63.7852 55.1641 63.2783 54.8154 62.9092 54.3643C62.54 53.9131 62.332 53.3887 62.2852 52.791H64.8516C64.9219 53.1602 65.1211 53.4355 65.4492 53.6172C65.7832 53.8047 66.2168 53.8984 66.75 53.8984C67.3828 53.8984 67.875 53.749 68.2266 53.4502C68.584 53.1572 68.7656 52.6914 68.7715 52.0527V50.3125H68.6484C68.4551 50.752 68.1299 51.1211 67.6729 51.4199C67.2158 51.7188 66.6328 51.8652 65.9238 51.8594C65.1855 51.8652 64.5234 51.6953 63.9375 51.3496C63.3516 50.998 62.8887 50.4707 62.5488 49.7676C62.209 49.0586 62.0391 48.1914 62.0391 47.166C62.0391 46.1289 62.2119 45.2471 62.5576 44.5205C62.9033 43.7939 63.3691 43.249 63.9551 42.8857C64.5469 42.5166 65.2031 42.332 65.9238 42.332C66.6445 42.332 67.2246 42.499 67.6641 42.833C68.1035 43.167 68.4316 43.5742 68.6484 44.0547H68.7539V42.4551H71.3379V52.1055C71.3379 52.8965 71.1416 53.5674 70.749 54.1182C70.3564 54.6689 69.8115 55.082 69.1143 55.3574C68.4229 55.6387 67.6172 55.7793 66.6973 55.7793ZM64.7109 47.1748C64.7109 48.0186 64.8838 48.6836 65.2295 49.1699C65.5811 49.6562 66.082 49.9023 66.7324 49.9082C67.3828 49.9023 67.8838 49.6621 68.2354 49.1875C68.5928 48.7129 68.7715 48.0508 68.7715 47.2012C68.7715 46.3398 68.5928 45.6602 68.2354 45.1621C67.8779 44.6582 67.377 44.4062 66.7324 44.4062C66.0879 44.4062 65.5898 44.6582 65.2383 45.1621C64.8867 45.666 64.7109 46.3369 64.7109 47.1748ZM75.9609 52H73.3594V42.4551H75.8379V44.125H75.9434C76.1602 43.5684 76.5176 43.1318 77.0156 42.8154C77.5137 42.4932 78.1113 42.332 78.8086 42.332C79.4707 42.332 80.0479 42.4785 80.54 42.7715C81.0381 43.0586 81.4219 43.4717 81.6914 44.0107C81.9609 44.5498 82.0957 45.1855 82.0957 45.918V52H79.5117V46.375C79.5059 45.7832 79.3506 45.3232 79.0459 44.9951C78.7471 44.6611 78.3281 44.4941 77.7891 44.4941C77.2383 44.4941 76.7959 44.6699 76.4619 45.0215C76.1279 45.373 75.9609 45.8594 75.9609 46.4805V52ZM94.3828 42.4551H96.9844V52H94.4883V50.2773H94.3828C94.1602 50.8457 93.7969 51.2969 93.293 51.6309C92.7891 51.959 92.1855 52.123 91.4824 52.123C90.8496 52.123 90.29 51.9795 89.8037 51.6924C89.3174 51.3994 88.9395 50.9834 88.6699 50.4443C88.4004 49.9053 88.2656 49.2695 88.2656 48.5371V42.4551H90.8672V48.0801C90.8672 48.6426 91.0166 49.0908 91.3154 49.4248C91.6201 49.7529 92.0273 49.9199 92.5371 49.9258C92.8652 49.9199 93.1699 49.8408 93.4512 49.6885C93.7324 49.5361 93.958 49.3105 94.1279 49.0117C94.2979 48.7129 94.3828 48.3555 94.3828 47.9395V42.4551ZM99.0059 42.4551H101.572V44.0547H101.678C101.9 43.5742 102.229 43.167 102.662 42.833C103.096 42.499 103.676 42.332 104.402 42.332C105.123 42.332 105.776 42.5195 106.362 42.8945C106.948 43.2637 107.411 43.8174 107.751 44.5557C108.097 45.2881 108.27 46.1816 108.27 47.2363C108.27 48.2676 108.103 49.1553 107.769 49.8994C107.435 50.6377 106.975 51.2002 106.389 51.5869C105.803 51.9678 105.141 52.1582 104.402 52.1582C103.693 52.1582 103.116 51.9971 102.671 51.6748C102.231 51.3467 101.9 50.9453 101.678 50.4707H101.607V55.5859H99.0059V42.4551ZM101.555 47.1924C101.555 48.0713 101.73 48.7715 102.082 49.293C102.439 49.8145 102.938 50.0781 103.576 50.084C104.221 50.0781 104.722 49.8174 105.079 49.3018C105.437 48.7861 105.615 48.1006 105.615 47.2451C105.615 46.3838 105.439 45.6953 105.088 45.1797C104.736 44.6641 104.232 44.4062 103.576 44.4062C102.938 44.4062 102.439 44.6553 102.082 45.1533C101.73 45.6514 101.555 46.3311 101.555 47.1924Z" fill="#A07CDF"/>
</g>
<defs>
<clipPath id="clip0_32_20568">
<rect width="155" height="87" fill="white"/>
</clipPath>
</defs>
</svg>
