<svg width="195" height="127" viewBox="0 0 195 127" fill="none" xmlns="http://www.w3.org/2000/svg">
<g filter="url(#filter0_d_2043_2060)">
<path d="M20.5 66.5L40 44H155L174.5 66.5L155 89H39.5L20.5 66.5Z" fill="#FFFCFF" fill-opacity="0.1"/>
<path d="M155.369 89.5342H39.6307L20 66.4994L39.6307 43.4646H155.369L175 66.4994L155.369 89.5342ZM39.9518 88.8484H155.048L174.101 66.4994L155.048 44.1504H39.9518L20.899 66.4994L39.9518 88.8484Z" fill="#A07CDF"/>
<path d="M154.094 86.7909H40.9058L23.6143 66.4995L40.9058 46.208H154.094L171.386 66.4995L154.094 86.7909ZM41.2268 86.1051H153.782L170.496 66.4995L153.782 46.8938H41.2268L24.5132 66.4995L41.2268 86.1051Z" fill="#A07CDF"/>
<path d="M41.3094 46.7932L40.8232 46.3086L55.9499 31.2294H105.953L116.135 21.0791H134.656V21.7649H116.42L106.238 31.9152H56.2343L41.3094 46.7932Z" fill="#A07CDF"/>
<path d="M116.888 37.53H87.0563L81.323 31.8147L81.8092 31.3301L87.3406 36.8442H116.888V37.53Z" fill="#A07CDF"/>
<path d="M134.656 22.8531C135.446 22.8531 136.087 22.2144 136.087 21.4265C136.087 20.6387 135.446 20 134.656 20C133.866 20 133.225 20.6387 133.225 21.4265C133.225 22.2144 133.866 22.8531 134.656 22.8531Z" fill="#A07CDF"/>
<path d="M116.888 38.6089C117.678 38.6089 118.319 37.9702 118.319 37.1824C118.319 36.3945 117.678 35.7559 116.888 35.7559C116.097 35.7559 115.457 36.3945 115.457 37.1824C115.457 37.9702 116.097 38.6089 116.888 38.6089Z" fill="#A07CDF"/>
<path d="M87.8635 107.009C88.6539 107.009 89.2945 106.37 89.2945 105.583C89.2945 104.795 88.6539 104.156 87.8635 104.156C87.0732 104.156 86.4325 104.795 86.4325 105.583C86.4325 106.37 87.0732 107.009 87.8635 107.009Z" fill="#A07CDF"/>
<path d="M154.159 86.5623H41.1719L23.9263 66.4812L26.0178 64.698L42.4378 83.819H152.893L169.313 64.698L171.404 66.4812L154.159 86.5623Z" fill="#A07CDF"/>
<path d="M102.009 105.921H87.8635V105.235H101.724L109.384 97.6087H146.288L154.966 88.949L155.452 89.4336L146.572 98.2946H109.668L102.009 105.921Z" fill="#A07CDF"/>
<path d="M73.5312 64.2852C73.417 63.6172 72.8369 63.1865 71.9668 63.1777C71.123 63.1865 70.4814 63.582 70.4902 64.1621C70.4814 64.5928 70.8154 64.9268 71.7207 65.1113L73.4258 65.4629C75.2803 65.8496 76.1768 66.6758 76.1855 68.0469C76.1768 69.9277 74.4893 71.1846 71.9492 71.1934C69.374 71.1846 67.8623 70.0332 67.6426 68.1699H70.2617C70.3848 68.917 70.9912 69.3037 71.9492 69.3125C72.8984 69.3037 73.5312 68.9258 73.5312 68.3105C73.5312 67.8184 73.127 67.5107 72.2305 67.3262L70.6484 67.0098C68.8291 66.6494 67.8975 65.7178 67.9062 64.3027C67.8975 62.4746 69.4707 61.332 71.9316 61.332C74.3398 61.332 75.834 62.4746 75.9746 64.2852H73.5312ZM77.7852 71V61.4551H80.3867V71H77.7852ZM77.6621 58.8887C77.6621 58.1504 78.3037 57.5615 79.0859 57.5527C79.8594 57.5615 80.501 58.1504 80.4922 58.8887C80.501 59.6094 79.8594 60.207 79.0859 60.207C78.3037 60.207 77.6621 59.6094 77.6621 58.8887ZM86.6973 74.7793C84.0605 74.7793 82.4346 73.5928 82.2852 71.791H84.8516C84.9922 72.5557 85.7129 72.8984 86.75 72.8984C87.9541 72.8984 88.7627 72.3799 88.7715 71.0527V69.3125H88.6484C88.3057 70.0859 87.4619 70.8682 85.9238 70.8594C83.7705 70.8682 82.0391 69.3477 82.0391 66.166C82.0391 62.9404 83.8145 61.332 85.9238 61.332C87.5234 61.332 88.2969 62.2812 88.6484 63.0547H88.7539V61.4551H91.3379V71.1055C91.3291 73.54 89.4131 74.7793 86.6973 74.7793ZM84.7109 66.2012C84.7021 67.8535 85.4141 68.8994 86.7324 68.9082C88.0332 68.8994 88.7715 67.8975 88.7715 66.2012C88.7715 64.5049 88.042 63.4062 86.7324 63.4062C85.4053 63.4062 84.7021 64.5576 84.7109 66.2012ZM95.9609 65.4805V71H93.3594V61.4551H95.8379V63.125H95.9434C96.374 62.0264 97.3936 61.332 98.8086 61.332C100.804 61.332 102.104 62.6943 102.096 64.918V71H99.5117V65.375C99.5029 64.1973 98.8701 63.4941 97.7891 63.4941C96.708 63.4941 95.9609 64.2236 95.9609 65.4805ZM114.383 66.9395V61.4551H116.984V71H114.488V69.2773H114.383C113.952 70.3848 112.924 71.123 111.482 71.123C109.575 71.123 108.266 69.7695 108.266 67.5371V61.4551H110.867V67.0801C110.867 68.2139 111.518 68.917 112.537 68.9258C113.486 68.917 114.383 68.2402 114.383 66.9395ZM119.006 74.5859V61.4551H121.572V63.0547H121.678C122.038 62.2812 122.794 61.332 124.402 61.332C126.512 61.332 128.278 62.9668 128.27 66.2363C128.278 69.4268 126.582 71.1582 124.402 71.1582C122.847 71.1582 122.047 70.2617 121.678 69.4707H121.607V74.5859H119.006ZM121.555 66.2188C121.546 67.9414 122.284 69.0752 123.576 69.084C124.903 69.0752 125.624 67.9062 125.615 66.2188C125.624 64.5576 124.921 63.4062 123.576 63.4062C122.275 63.4062 121.546 64.5049 121.555 66.2188Z" fill="#A07CDF"/>
</g>
<defs>
<filter id="filter0_d_2043_2060" x="0" y="0" width="195" height="127.009" filterUnits="userSpaceOnUse" color-interpolation-filters="sRGB">
<feFlood flood-opacity="0" result="BackgroundImageFix"/>
<feColorMatrix in="SourceAlpha" type="matrix" values="0 0 0 0 0 0 0 0 0 0 0 0 0 0 0 0 0 0 127 0" result="hardAlpha"/>
<feOffset/>
<feGaussianBlur stdDeviation="10"/>
<feComposite in2="hardAlpha" operator="out"/>
<feColorMatrix type="matrix" values="0 0 0 0 1 0 0 0 0 1 0 0 0 0 1 0 0 0 0.35 0"/>
<feBlend mode="normal" in2="BackgroundImageFix" result="effect1_dropShadow_2043_2060"/>
<feBlend mode="normal" in="SourceGraphic" in2="effect1_dropShadow_2043_2060" result="shape"/>
</filter>
</defs>
</svg>
